<svg width="19" height="19" viewBox="0 0 19 19" fill="none" xmlns="http://www.w3.org/2000/svg">
<path d="M0.195435 3.54389C0.195435 2.73016 0.518688 1.94975 1.09408 1.37436C1.66948 0.798962 2.44988 0.475708 3.26362 0.475708H5.51362V5.79389H0.195435V3.54389ZM0.195435 7.02116V11.9303H5.51362V7.02116H0.195435ZM0.195435 13.1575V15.4075C0.195435 16.2213 0.518688 17.0017 1.09408 17.5771C1.66948 18.1525 2.44988 18.4757 3.26362 18.4757H5.51362V13.1575H0.195435ZM6.74089 18.4757H11.65V13.1575H6.74089V18.4757ZM12.8773 18.4757H15.1273C15.941 18.4757 16.7214 18.1525 17.2968 17.5771C17.8722 17.0017 18.1954 16.2213 18.1954 15.4075V13.1575H12.8773V18.4757ZM18.1954 11.9303V7.02116H12.8773V11.9303H18.1954ZM18.1954 5.79389V3.54389C18.1954 2.73016 17.8722 1.94975 17.2968 1.37436C16.7214 0.798962 15.941 0.475708 15.1273 0.475708H12.8773V5.79389H18.1954ZM11.65 0.475708H6.74089V5.79389H11.65V0.475708ZM11.65 7.02116V11.9303H6.74089V7.02116H11.65Z" fill="#6B7A99"/>
</svg>
