<svg width="19" height="19" viewBox="0 0 19 19" fill="none" xmlns="http://www.w3.org/2000/svg">
<path d="M0.195557 3.54389C0.195557 2.73016 0.518811 1.94975 1.09421 1.37436C1.6696 0.798962 2.45001 0.475708 3.26374 0.475708H5.51374V5.79389H0.195557V3.54389ZM0.195557 7.02116V11.9303H5.51374V7.02116H0.195557ZM0.195557 13.1575V15.4075C0.195557 16.2213 0.518811 17.0017 1.09421 17.5771C1.6696 18.1525 2.45001 18.4757 3.26374 18.4757H5.51374V13.1575H0.195557ZM6.74101 18.4757H11.6501V13.1575H6.74101V18.4757ZM12.8774 18.4757H15.1274C15.9411 18.4757 16.7215 18.1525 17.2969 17.5771C17.8723 17.0017 18.1956 16.2213 18.1956 15.4075V13.1575H12.8774V18.4757ZM18.1956 11.9303V7.02116H12.8774V11.9303H18.1956ZM18.1956 5.79389V3.54389C18.1956 2.73016 17.8723 1.94975 17.2969 1.37436C16.7215 0.798962 15.9411 0.475708 15.1274 0.475708H12.8774V5.79389H18.1956ZM11.6501 0.475708H6.74101V5.79389H11.6501V0.475708ZM11.6501 7.02116V11.9303H6.74101V7.02116H11.6501Z" fill="#004DD5"/>
</svg>
