<svg width="17" height="17" viewBox="0 0 17 17" fill="none" xmlns="http://www.w3.org/2000/svg">
<path d="M13.6798 11.0884C14.4372 9.95102 14.8408 8.61487 14.8398 7.24842C14.8419 5.6905 14.3242 4.1764 13.3687 2.9459C12.4132 1.7154 11.0745 0.838811 9.5646 0.45495C8.05471 0.0710879 6.45991 0.20189 5.03274 0.826643C3.60557 1.4514 2.4276 2.53439 1.68536 3.90414C0.943121 5.27389 0.679035 6.8521 0.934919 8.38887C1.1908 9.92564 1.95203 11.3331 3.09807 12.3885C4.24411 13.4438 5.70945 14.0867 7.26206 14.2153C8.81466 14.3438 10.3658 13.9508 11.6698 13.0984L14.8398 16.2484L16.8398 14.2484L13.6798 11.0884ZM2.83985 7.24842C2.83985 6.25951 3.13309 5.29281 3.6825 4.47057C4.23191 3.64832 5.0128 3.00746 5.92643 2.62902C6.84006 2.25058 7.84539 2.15157 8.8153 2.34449C9.7852 2.53742 10.6761 3.01362 11.3754 3.71288C12.0746 4.41215 12.5508 5.30306 12.7438 6.27297C12.9367 7.24287 12.8377 8.24821 12.4592 9.16184C12.0808 10.0755 11.4399 10.8564 10.6177 11.4058C9.79545 11.9552 8.82875 12.2484 7.83985 12.2484C6.51377 12.2484 5.242 11.7216 4.30431 10.784C3.36663 9.84627 2.83985 8.5745 2.83985 7.24842Z" fill="white"/>
</svg>
